<svg width="530" height="57" viewBox="0 0 530 57" fill="none" xmlns="http://www.w3.org/2000/svg">
<g filter="url(#filter0_d)">
<path d="M36.8457 38.1675L4.88086 24.8887V19.4336L36.8457 6.15479V13.0215L14.4751 22.1851L36.8457 31.3008V38.1675ZM73.1095 27.0898C73.1095 28.8125 72.7586 30.3517 72.0568 31.7075C71.3709 33.0633 70.4219 34.1878 69.2096 35.0811C67.806 36.1338 66.2588 36.8835 64.568 37.3301C62.8932 37.7767 60.7638 38 58.1798 38H42.6281V2.37451H56.4572C59.3283 2.37451 61.4258 2.47021 62.7497 2.66162C64.0895 2.85303 65.4134 3.27572 66.7213 3.92969C68.0771 4.61556 69.082 5.54069 69.736 6.70508C70.4059 7.85352 70.7409 9.16943 70.7409 10.6528C70.7409 12.3755 70.2863 13.8988 69.3771 15.2227C68.4679 16.5306 67.1839 17.5514 65.5251 18.2852V18.4766C67.8538 18.9391 69.6961 19.8962 71.0519 21.3477C72.4237 22.7992 73.1095 24.7132 73.1095 27.0898ZM61.338 12.4473C61.338 11.8571 61.1865 11.2669 60.8835 10.6768C60.5963 10.0866 60.078 9.64795 59.3283 9.36084C58.6584 9.10563 57.821 8.97005 56.8161 8.9541C55.8271 8.9222 54.4315 8.90625 52.6291 8.90625H51.7677V16.4429H53.2033C54.6548 16.4429 55.8909 16.4189 56.9118 16.3711C57.9326 16.3232 58.7381 16.1637 59.3283 15.8926C60.1577 15.5257 60.7 15.0552 60.9552 14.481C61.2104 13.8908 61.338 13.2129 61.338 12.4473ZM63.5871 26.9463C63.5871 25.8138 63.3638 24.9445 62.9171 24.3384C62.4865 23.7163 61.7448 23.2537 60.6921 22.9507C59.9743 22.7433 58.9853 22.6317 57.7253 22.6157C56.4652 22.5998 55.1492 22.5918 53.7775 22.5918H51.7677V31.4683H52.4377C55.0216 31.4683 56.8719 31.4603 57.9884 31.4443C59.105 31.4284 60.1338 31.221 61.0749 30.8223C62.0319 30.4235 62.6859 29.8971 63.0368 29.2432C63.4036 28.5732 63.5871 27.8076 63.5871 26.9463ZM101.526 26.1567H81.8109C81.9385 28.2622 82.736 29.8732 84.2034 30.9897C85.6868 32.1063 87.8641 32.6646 90.7352 32.6646C92.5535 32.6646 94.3161 32.3376 96.0228 31.6836C97.7295 31.0296 99.0773 30.3278 100.066 29.5781H101.023V36.4927C99.0773 37.2743 97.243 37.8405 95.5203 38.1914C93.7977 38.5423 91.8916 38.7178 89.8021 38.7178C84.4108 38.7178 80.2796 37.5055 77.4085 35.0811C74.5374 32.6566 73.1019 29.2033 73.1019 24.7212C73.1019 20.2869 74.4577 16.7778 77.1693 14.1938C79.8968 11.5939 83.6292 10.2939 88.3665 10.2939C92.737 10.2939 96.0228 11.4025 98.2239 13.6196C100.425 15.8208 101.526 18.995 101.526 23.1421V26.1567ZM92.9603 21.1084C92.9124 19.306 92.4658 17.9502 91.6204 17.041C90.7751 16.1318 89.4591 15.6772 87.6727 15.6772C86.0138 15.6772 84.6501 16.1079 83.5814 16.9692C82.5127 17.8306 81.9145 19.2103 81.7869 21.1084H92.9603ZM130.181 38H121.52V24.6733C121.52 23.5887 121.464 22.512 121.353 21.4434C121.241 20.3587 121.049 19.5612 120.778 19.0508C120.459 18.4606 119.989 18.0299 119.367 17.7588C118.761 17.4876 117.907 17.3521 116.807 17.3521C116.025 17.3521 115.228 17.4797 114.414 17.7349C113.617 17.9901 112.747 18.3968 111.806 18.9551V38H103.193V11.1313H111.806V14.0981C113.337 12.9019 114.805 11.9847 116.208 11.3467C117.628 10.7087 119.199 10.3896 120.922 10.3896C123.825 10.3896 126.09 11.235 127.717 12.9258C129.36 14.6165 130.181 17.1447 130.181 20.5103V38ZM145.342 38.4785C145.342 41.5091 144.409 43.8698 142.543 45.5605C140.677 47.2673 138.276 48.1206 135.341 48.1206C133.778 48.1206 132.351 48.0488 131.059 47.9053C129.783 47.7777 128.85 47.6421 128.259 47.4985V41.3257H128.929C129.408 41.4852 130.006 41.6208 130.724 41.7324C131.442 41.8441 132.008 41.8999 132.423 41.8999C134.081 41.8999 135.214 41.4054 135.82 40.4165C136.426 39.4276 136.729 37.8006 136.729 35.5356V16.9692H131.633V11.1313H145.342V38.4785ZM145.342 7.30322H136.179V0.771484H145.342V7.30322ZM165.337 30.9897V25.3911C164.172 25.4868 162.912 25.6224 161.556 25.7979C160.201 25.9574 159.172 26.1488 158.47 26.3721C157.609 26.6432 156.947 27.042 156.484 27.5684C156.038 28.0788 155.814 28.7567 155.814 29.6021C155.814 30.1603 155.862 30.6149 155.958 30.9658C156.054 31.3167 156.293 31.6517 156.676 31.9707C157.042 32.2897 157.481 32.529 157.992 32.6885C158.502 32.832 159.299 32.9038 160.384 32.9038C161.245 32.9038 162.115 32.7284 162.992 32.3774C163.885 32.0265 164.667 31.564 165.337 30.9897ZM165.337 35.1528C164.874 35.5037 164.3 35.9264 163.614 36.4209C162.928 36.9154 162.282 37.3062 161.676 37.5933C160.831 37.9761 159.953 38.2552 159.044 38.4307C158.135 38.6221 157.138 38.7178 156.054 38.7178C153.501 38.7178 151.364 37.9282 149.641 36.3491C147.919 34.77 147.057 32.7523 147.057 30.2959C147.057 28.334 147.496 26.731 148.373 25.4868C149.251 24.2427 150.495 23.2617 152.106 22.5439C153.701 21.8262 155.679 21.3158 158.039 21.0127C160.4 20.7096 162.848 20.4863 165.385 20.3428V20.1992C165.385 18.7158 164.778 17.695 163.566 17.1367C162.354 16.5625 160.568 16.2754 158.207 16.2754C156.787 16.2754 155.272 16.5306 153.661 17.041C152.05 17.5355 150.894 17.9183 150.192 18.1895H149.402V11.7056C150.311 11.4663 151.787 11.1872 153.828 10.8682C155.886 10.5332 157.944 10.3657 160.001 10.3657C164.898 10.3657 168.431 11.1234 170.6 12.6387C172.786 14.138 173.878 16.4987 173.878 19.7207V38H165.337V35.1528ZM203.658 18.9551V38H194.997V24.5776C194.997 23.2697 194.965 22.1611 194.901 21.252C194.838 20.3268 194.662 19.5771 194.375 19.0029C194.088 18.4287 193.649 18.014 193.059 17.7588C192.485 17.4876 191.671 17.3521 190.619 17.3521C189.773 17.3521 188.952 17.5275 188.154 17.8784C187.357 18.2134 186.639 18.5723 186.001 18.9551V38H177.388V11.1313H186.001V14.0981C187.484 12.9338 188.904 12.0246 190.26 11.3706C191.616 10.7166 193.115 10.3896 194.758 10.3896C196.528 10.3896 198.091 10.7884 199.447 11.5859C200.803 12.3675 201.864 13.5239 202.629 15.0552C204.352 13.6037 206.027 12.4632 207.654 11.6338C209.281 10.8044 210.876 10.3896 212.439 10.3896C215.342 10.3896 217.543 11.259 219.042 12.9976C220.558 14.7362 221.315 17.2404 221.315 20.5103V38H212.654V24.5776C212.654 23.2537 212.622 22.1372 212.559 21.228C212.511 20.3188 212.343 19.5771 212.056 19.0029C211.785 18.4287 211.354 18.014 210.764 17.7588C210.174 17.4876 209.345 17.3521 208.276 17.3521C207.558 17.3521 206.856 17.4797 206.17 17.7349C205.485 17.9741 204.647 18.3809 203.658 18.9551ZM233.462 38H224.849V11.1313H233.462V38ZM233.701 7.30322H224.609V0.771484H233.701V7.30322ZM264.175 38H255.514V24.6733C255.514 23.5887 255.458 22.512 255.346 21.4434C255.235 20.3587 255.043 19.5612 254.772 19.0508C254.453 18.4606 253.983 18.0299 253.361 17.7588C252.755 17.4876 251.901 17.3521 250.801 17.3521C250.019 17.3521 249.221 17.4797 248.408 17.7349C247.61 17.9901 246.741 18.3968 245.8 18.9551V38H237.187V11.1313H245.8V14.0981C247.331 12.9019 248.799 11.9847 250.202 11.3467C251.622 10.7087 253.193 10.3896 254.916 10.3896C257.819 10.3896 260.084 11.235 261.711 12.9258C263.354 14.6165 264.175 17.1447 264.175 20.5103V38ZM296.706 26.8027C296.706 30.3118 295.215 33.167 292.232 35.3682C289.266 37.5534 285.23 38.646 280.126 38.646C277.175 38.646 274.599 38.3908 272.398 37.8804C270.213 37.354 268.163 36.6921 266.249 35.8945V27.353H267.254C269.152 28.8683 271.273 30.0327 273.618 30.8462C275.979 31.6597 278.244 32.0664 280.413 32.0664C280.971 32.0664 281.705 32.0186 282.614 31.9229C283.523 31.8271 284.265 31.6676 284.839 31.4443C285.541 31.1572 286.115 30.7983 286.562 30.3677C287.025 29.937 287.256 29.299 287.256 28.4536C287.256 27.672 286.921 27.0021 286.251 26.4438C285.597 25.8696 284.632 25.431 283.356 25.1279C282.016 24.8089 280.596 24.5138 279.097 24.2427C277.614 23.9556 276.218 23.5967 274.91 23.166C271.911 22.193 269.75 20.8771 268.426 19.2183C267.118 17.5435 266.464 15.4699 266.464 12.9976C266.464 9.67985 267.948 6.97624 270.914 4.88672C273.897 2.78125 277.725 1.72852 282.399 1.72852C284.744 1.72852 287.056 1.9598 289.337 2.42236C291.634 2.86898 293.62 3.43522 295.295 4.12109V12.3276H294.314C292.878 11.1792 291.116 10.2222 289.026 9.45654C286.953 8.67497 284.831 8.28418 282.662 8.28418C281.896 8.28418 281.131 8.34001 280.365 8.45166C279.615 8.54736 278.89 8.73877 278.188 9.02588C277.566 9.26514 277.032 9.632 276.585 10.1265C276.138 10.605 275.915 11.1553 275.915 11.7773C275.915 12.7184 276.274 13.4442 276.992 13.9546C277.709 14.4491 279.065 14.9036 281.059 15.3184C282.367 15.5895 283.619 15.8527 284.815 16.1079C286.028 16.3631 287.328 16.714 288.715 17.1606C291.443 18.0539 293.453 19.2741 294.745 20.8213C296.053 22.3525 296.706 24.3464 296.706 26.8027ZM330.123 35.9663C328.528 36.5884 326.415 37.2104 323.783 37.8325C321.151 38.4386 318.527 38.7417 315.911 38.7417C309.85 38.7417 305.105 37.0988 301.675 33.813C298.246 30.5112 296.531 25.9574 296.531 20.1514C296.531 14.6165 298.262 10.1584 301.723 6.77686C305.184 3.37939 310.01 1.68066 316.198 1.68066C318.543 1.68066 320.776 1.896 322.898 2.32666C325.019 2.74137 327.38 3.57878 329.98 4.83887V13.189H328.951C328.504 12.854 327.85 12.3835 326.989 11.7773C326.128 11.1553 325.298 10.6289 324.501 10.1982C323.575 9.68783 322.491 9.24919 321.247 8.88232C320.018 8.51546 318.711 8.33203 317.323 8.33203C315.696 8.33203 314.22 8.57129 312.897 9.0498C311.573 9.52832 310.384 10.262 309.332 11.251C308.327 12.208 307.529 13.4282 306.939 14.9116C306.365 16.3791 306.078 18.0778 306.078 20.0078C306.078 23.9476 307.122 26.9622 309.212 29.0518C311.302 31.1413 314.388 32.186 318.471 32.186C318.822 32.186 319.205 32.1781 319.62 32.1621C320.05 32.1462 320.441 32.1222 320.792 32.0903V25.104H313.686V18.3809H330.123V35.9663ZM352.965 19.3379H352.199C351.832 19.2103 351.242 19.1146 350.428 19.0508C349.615 18.987 348.937 18.9551 348.395 18.9551C347.167 18.9551 346.082 19.0348 345.141 19.1943C344.2 19.3538 343.187 19.625 342.102 20.0078V38H333.489V11.1313H342.102V15.0791C344 13.4521 345.651 12.3755 347.055 11.8491C348.459 11.3068 349.751 11.0356 350.931 11.0356C351.234 11.0356 351.577 11.0436 351.96 11.0596C352.343 11.0755 352.677 11.0994 352.965 11.1313V19.3379ZM362.049 38H353.435V11.1313H362.049V38ZM362.288 7.30322H353.196V0.771484H362.288V7.30322ZM391.9 34.9136C391.9 37.4338 391.542 39.5552 390.824 41.2778C390.106 43.0005 389.101 44.3483 387.809 45.3213C386.517 46.3102 384.954 47.02 383.12 47.4507C381.301 47.8973 379.244 48.1206 376.947 48.1206C375.081 48.1206 373.238 48.009 371.42 47.7856C369.618 47.5623 368.054 47.2912 366.731 46.9722V40.249H367.783C368.836 40.6637 370.12 41.0386 371.635 41.3735C373.151 41.7244 374.506 41.8999 375.703 41.8999C377.298 41.8999 378.59 41.7484 379.579 41.4453C380.584 41.1582 381.349 40.7435 381.876 40.2012C382.37 39.6908 382.729 39.0368 382.952 38.2393C383.176 37.4417 383.287 36.4847 383.287 35.3682V34.8657C382.25 35.7111 381.102 36.381 379.842 36.8755C378.582 37.37 377.178 37.6172 375.631 37.6172C371.867 37.6172 368.964 36.4847 366.922 34.2197C364.88 31.9548 363.859 28.5094 363.859 23.8838C363.859 21.6667 364.171 19.7526 364.793 18.1416C365.415 16.5306 366.292 15.127 367.424 13.9307C368.477 12.8141 369.769 11.9448 371.3 11.3228C372.848 10.7007 374.427 10.3896 376.038 10.3896C377.489 10.3896 378.805 10.5651 379.985 10.916C381.182 11.251 382.266 11.7215 383.239 12.3276L383.55 11.1313H391.9V34.9136ZM383.287 29.5303V17.3521C382.793 17.1447 382.187 16.9852 381.469 16.8735C380.751 16.7459 380.105 16.6821 379.531 16.6821C377.266 16.6821 375.567 17.3361 374.435 18.644C373.302 19.936 372.736 21.7464 372.736 24.0752C372.736 26.6592 373.214 28.4616 374.171 29.4824C375.144 30.5033 376.58 31.0137 378.478 31.0137C379.339 31.0137 380.185 30.8781 381.014 30.6069C381.844 30.3358 382.601 29.9769 383.287 29.5303ZM421.752 34.9136C421.752 37.4338 421.393 39.5552 420.676 41.2778C419.958 43.0005 418.953 44.3483 417.661 45.3213C416.369 46.3102 414.806 47.02 412.971 47.4507C411.153 47.8973 409.095 48.1206 406.799 48.1206C404.932 48.1206 403.09 48.009 401.272 47.7856C399.469 47.5623 397.906 47.2912 396.582 46.9722V40.249H397.635C398.688 40.6637 399.972 41.0386 401.487 41.3735C403.002 41.7244 404.358 41.8999 405.554 41.8999C407.149 41.8999 408.441 41.7484 409.43 41.4453C410.435 41.1582 411.201 40.7435 411.727 40.2012C412.222 39.6908 412.581 39.0368 412.804 38.2393C413.027 37.4417 413.139 36.4847 413.139 35.3682V34.8657C412.102 35.7111 410.954 36.381 409.694 36.8755C408.434 37.37 407.03 37.6172 405.483 37.6172C401.718 37.6172 398.815 36.4847 396.774 34.2197C394.732 31.9548 393.711 28.5094 393.711 23.8838C393.711 21.6667 394.022 19.7526 394.644 18.1416C395.266 16.5306 396.144 15.127 397.276 13.9307C398.329 12.8141 399.621 11.9448 401.152 11.3228C402.699 10.7007 404.278 10.3896 405.889 10.3896C407.341 10.3896 408.657 10.5651 409.837 10.916C411.033 11.251 412.118 11.7215 413.091 12.3276L413.402 11.1313H421.752V34.9136ZM413.139 29.5303V17.3521C412.644 17.1447 412.038 16.9852 411.321 16.8735C410.603 16.7459 409.957 16.6821 409.383 16.6821C407.118 16.6821 405.419 17.3361 404.286 18.644C403.154 19.936 402.588 21.7464 402.588 24.0752C402.588 26.6592 403.066 28.4616 404.023 29.4824C404.996 30.5033 406.432 31.0137 408.33 31.0137C409.191 31.0137 410.037 30.8781 410.866 30.6069C411.695 30.3358 412.453 29.9769 413.139 29.5303ZM448.829 29.4824C448.829 32.2578 447.584 34.4989 445.096 36.2056C442.608 37.8963 439.202 38.7417 434.88 38.7417C432.487 38.7417 430.318 38.5184 428.372 38.0718C426.426 37.6252 424.863 37.1307 423.683 36.5884V29.5063H424.472C424.903 29.8094 425.397 30.1444 425.955 30.5112C426.53 30.8621 427.335 31.245 428.372 31.6597C429.265 32.0265 430.278 32.3455 431.411 32.6167C432.543 32.8719 433.755 32.9995 435.047 32.9995C436.738 32.9995 437.99 32.8161 438.804 32.4492C439.617 32.0664 440.024 31.5081 440.024 30.7744C440.024 30.1204 439.785 29.6499 439.306 29.3628C438.828 29.0597 437.918 28.7726 436.579 28.5015C435.941 28.3579 435.071 28.2064 433.971 28.0469C432.886 27.8714 431.897 27.6641 431.004 27.4248C428.563 26.7868 426.753 25.7979 425.573 24.458C424.392 23.1022 423.802 21.4194 423.802 19.4097C423.802 16.8257 425.022 14.6803 427.463 12.9736C429.919 11.251 433.269 10.3896 437.512 10.3896C439.521 10.3896 441.443 10.597 443.278 11.0117C445.128 11.4105 446.572 11.8411 447.608 12.3037V19.0986H446.867C445.591 18.2214 444.131 17.5116 442.488 16.9692C440.861 16.411 439.21 16.1318 437.536 16.1318C436.148 16.1318 434.975 16.3232 434.018 16.7061C433.077 17.0889 432.607 17.6312 432.607 18.333C432.607 18.971 432.822 19.4575 433.253 19.7925C433.684 20.1274 434.696 20.4624 436.291 20.7974C437.169 20.9728 438.11 21.1483 439.115 21.3237C440.135 21.4832 441.156 21.6906 442.177 21.9458C444.442 22.536 446.117 23.4691 447.202 24.7451C448.286 26.0052 448.829 27.5843 448.829 29.4824ZM487.693 0.771484L468.719 45.752H461.374L480.276 0.771484H487.693ZM525.416 24.8887L493.451 38.1675V31.3008L515.822 22.1611L493.451 13.0215V6.15479L525.416 19.4336V24.8887Z" fill="#DDC5F9"/>
</g>
<defs>
<filter id="filter0_d" x="0.880859" y="0.771484" width="528.535" height="55.3491" filterUnits="userSpaceOnUse" color-interpolation-filters="sRGB">
<feFlood flood-opacity="0" result="BackgroundImageFix"/>
<feColorMatrix in="SourceAlpha" type="matrix" values="0 0 0 0 0 0 0 0 0 0 0 0 0 0 0 0 0 0 127 0"/>
<feOffset dy="4"/>
<feGaussianBlur stdDeviation="2"/>
<feColorMatrix type="matrix" values="0 0 0 0 0 0 0 0 0 0 0 0 0 0 0 0 0 0 0.25 0"/>
<feBlend mode="normal" in2="BackgroundImageFix" result="effect1_dropShadow"/>
<feBlend mode="normal" in="SourceGraphic" in2="effect1_dropShadow" result="shape"/>
</filter>
</defs>
</svg>
