<svg width="110" height="60" viewBox="0 0 110 60" fill="none" xmlns="http://www.w3.org/2000/svg">
<rect x="8.19565" y="1.5" width="92.6521" height="43.5517" rx="2.5" fill="white" stroke="black" stroke-width="3" stroke-linejoin="round"/>
<g filter="url(#filter0_i)">
<path d="M8.34454 45.9123C8.53364 45.6634 8.82824 45.5172 9.14083 45.5172H100.839C101.151 45.5172 101.445 45.663 101.635 45.9114L108.777 55.2907C109.278 55.949 108.809 56.8966 107.982 56.8966H2.01552C1.18863 56.8966 0.719029 55.9501 1.21923 55.2916L8.34454 45.9123Z" fill="#747474"/>
</g>
<path d="M9.14083 46.5172H100.839L107.982 55.8966H2.01552L9.14083 46.5172Z" stroke="black" stroke-width="2" stroke-linejoin="round"/>
<path d="M47.4319 17.6503C47.4319 18.3534 47.2887 18.9817 47.0022 19.5351C46.7223 20.0885 46.3349 20.5475 45.8401 20.912C45.2672 21.3417 44.6357 21.6477 43.9456 21.83C43.262 22.0123 42.3928 22.1034 41.3382 22.1034H34.9905V7.56243H40.635C41.8069 7.56243 42.663 7.6015 43.2034 7.67962C43.7503 7.75775 44.2906 7.93027 44.8245 8.1972C45.3779 8.47715 45.788 8.85475 46.0549 9.33001C46.3284 9.79876 46.4651 10.3359 46.4651 10.9413C46.4651 11.6445 46.2796 12.2662 45.9085 12.8066C45.5374 13.3404 45.0133 13.7571 44.3362 14.0566V14.1347C45.2867 14.3235 46.0387 14.7141 46.5921 15.3066C47.152 15.899 47.4319 16.6803 47.4319 17.6503ZM42.6272 11.6738C42.6272 11.4329 42.5654 11.192 42.4417 10.9511C42.3245 10.7102 42.1129 10.5312 41.8069 10.414C41.5335 10.3098 41.1917 10.2545 40.7815 10.248C40.3779 10.235 39.8082 10.2284 39.0725 10.2284H38.721V13.3046H39.3069C39.8993 13.3046 40.4039 13.2949 40.8206 13.2753C41.2372 13.2558 41.566 13.1907 41.8069 13.08C42.1454 12.9303 42.3668 12.7382 42.471 12.5038C42.5751 12.263 42.6272 11.9863 42.6272 11.6738ZM43.5452 17.5917C43.5452 17.1295 43.454 16.7747 43.2717 16.5273C43.096 16.2734 42.7932 16.0846 42.3635 15.9609C42.0706 15.8762 41.6669 15.8307 41.1526 15.8242C40.6383 15.8176 40.1012 15.8144 39.5413 15.8144H38.721V19.4374H38.9944C40.0491 19.4374 40.8043 19.4342 41.26 19.4277C41.7158 19.4212 42.1357 19.3365 42.5198 19.1738C42.9104 19.011 43.1773 18.7962 43.3206 18.5292C43.4703 18.2558 43.5452 17.9433 43.5452 17.5917ZM60.8303 17.2695H52.7835C52.8355 18.1288 53.1611 18.7864 53.76 19.2421C54.3655 19.6978 55.2542 19.9257 56.426 19.9257C57.1682 19.9257 57.8876 19.7923 58.5842 19.5253C59.2809 19.2584 59.831 18.9719 60.2346 18.6659H60.6253V21.4882C59.831 21.8072 59.0823 22.0383 58.3792 22.1816C57.676 22.3248 56.898 22.3964 56.0452 22.3964C53.8447 22.3964 52.1585 21.9016 50.9866 20.912C49.8147 19.9225 49.2288 18.513 49.2288 16.6835C49.2288 14.8736 49.7822 13.4413 50.8889 12.3867C52.0022 11.3255 53.5257 10.7949 55.4592 10.7949C57.2431 10.7949 58.5842 11.2473 59.4827 12.1523C60.3811 13.0507 60.8303 14.3463 60.8303 16.039V17.2695ZM57.3342 15.2089C57.3147 14.4732 57.1324 13.9199 56.7874 13.5488C56.4423 13.1777 55.9052 12.9921 55.176 12.9921C54.499 12.9921 53.9423 13.1679 53.5061 13.5195C53.0699 13.871 52.8258 14.4342 52.7737 15.2089H57.3342ZM74.3264 22.1034H70.7913V16.664C70.7913 16.2213 70.7685 15.7818 70.7229 15.3456C70.6773 14.9029 70.5992 14.5774 70.4885 14.3691C70.3583 14.1282 70.1663 13.9524 69.9124 13.8417C69.665 13.7311 69.3167 13.6757 68.8674 13.6757C68.5484 13.6757 68.2229 13.7278 67.8909 13.832C67.5654 13.9361 67.2105 14.1021 66.8264 14.33V22.1034H63.3108V11.1367H66.8264V12.3476C67.4514 11.8593 68.0504 11.485 68.6233 11.2245C69.2027 10.9641 69.844 10.8339 70.5471 10.8339C71.732 10.8339 72.6565 11.179 73.3206 11.8691C73.9911 12.5592 74.3264 13.5911 74.3264 14.9648V22.1034ZM32.8128 38.2734C32.1617 38.5273 31.2991 38.7812 30.2249 39.0351C29.1507 39.2825 28.0797 39.4062 27.012 39.4062C24.538 39.4062 22.6012 38.7356 21.2014 37.3945C19.8017 36.0468 19.1018 34.1881 19.1018 31.8183C19.1018 29.5592 19.8082 27.7395 21.221 26.3593C22.6337 24.9726 24.6031 24.2792 27.1292 24.2792C28.0862 24.2792 28.9977 24.3671 29.8635 24.5429C30.7294 24.7122 31.693 25.054 32.7542 25.5683V28.9765H32.3342C32.152 28.8398 31.885 28.6477 31.5335 28.4003C31.1819 28.1464 30.8434 27.9316 30.5178 27.7558C30.1402 27.5475 29.6975 27.3684 29.1897 27.2187C28.6884 27.0689 28.1546 26.9941 27.5882 26.9941C26.9241 26.9941 26.3219 27.0917 25.7815 27.287C25.2411 27.4824 24.7561 27.7818 24.3264 28.1855C23.9163 28.5761 23.5908 29.0742 23.3499 29.6796C23.1155 30.2786 22.9983 30.9719 22.9983 31.7597C22.9983 33.3678 23.4247 34.5982 24.2776 35.4511C25.1305 36.304 26.3902 36.7304 28.0569 36.7304C28.2001 36.7304 28.3564 36.7271 28.5257 36.7206C28.7014 36.7141 28.8609 36.7044 29.0042 36.6913V33.8398H26.1038V31.0956H32.8128V38.2734ZM43.9358 31.4863H43.6233C43.4736 31.4342 43.2327 31.3951 42.9007 31.3691C42.5686 31.343 42.2919 31.33 42.0706 31.33C41.5693 31.33 41.1266 31.3626 40.7424 31.4277C40.3583 31.4928 39.9449 31.6034 39.5022 31.7597V39.1034H35.9866V28.1367H39.5022V29.748C40.277 29.0839 40.9508 28.6445 41.5237 28.4296C42.0966 28.2083 42.624 28.0976 43.1057 28.0976C43.2294 28.0976 43.3694 28.1008 43.5257 28.1074C43.6819 28.1139 43.8186 28.1236 43.9358 28.1367V31.4863ZM49.4436 39.1034H45.928V28.1367H49.4436V39.1034ZM49.5413 26.5742H45.8303V23.9081H49.5413V26.5742ZM63.428 37.8437C63.428 38.8723 63.2815 39.7382 62.9885 40.4413C62.6956 41.1445 62.2854 41.6946 61.7581 42.0917C61.2307 42.4954 60.5927 42.7851 59.844 42.9609C59.1018 43.1432 58.262 43.2343 57.3245 43.2343C56.5628 43.2343 55.8108 43.1887 55.0686 43.0976C54.3329 43.0064 53.6949 42.8958 53.1546 42.7656V40.0214H53.5842C54.0139 40.1907 54.538 40.3437 55.1565 40.4804C55.775 40.6236 56.3284 40.6952 56.8167 40.6952C57.4677 40.6952 57.9951 40.6334 58.3987 40.5097C58.8089 40.3925 59.1214 40.2232 59.3362 40.0019C59.538 39.7936 59.6845 39.5266 59.7757 39.2011C59.8668 38.8756 59.9124 38.485 59.9124 38.0292V37.8242C59.4892 38.1692 59.0204 38.4426 58.5061 38.6445C57.9918 38.8463 57.4189 38.9472 56.7874 38.9472C55.2509 38.9472 54.066 38.485 53.2327 37.5605C52.3993 36.636 51.9827 35.2298 51.9827 33.3417C51.9827 32.4368 52.1096 31.6555 52.3635 30.998C52.6174 30.3404 52.9755 29.7675 53.4378 29.2792C53.8674 28.8235 54.3948 28.4687 55.0198 28.2148C55.6513 27.9609 56.2958 27.8339 56.9534 27.8339C57.5458 27.8339 58.0829 27.9055 58.5647 28.0488C59.053 28.1855 59.4957 28.3775 59.8928 28.6249L60.0198 28.1367H63.428V37.8437ZM59.9124 35.6464V30.6757C59.7105 30.5911 59.4632 30.526 59.1702 30.4804C58.8772 30.4283 58.6135 30.4023 58.3792 30.4023C57.4547 30.4023 56.7613 30.6692 56.2991 31.2031C55.8368 31.7304 55.6057 32.4693 55.6057 33.4199C55.6057 34.4745 55.801 35.2102 56.1917 35.6269C56.5888 36.0436 57.1747 36.2519 57.9495 36.2519C58.301 36.2519 58.6461 36.1965 58.9846 36.0859C59.3232 35.9752 59.6324 35.8287 59.9124 35.6464ZM77.4124 37.8437C77.4124 38.8723 77.2659 39.7382 76.9729 40.4413C76.6799 41.1445 76.2698 41.6946 75.7424 42.0917C75.2151 42.4954 74.5771 42.7851 73.8284 42.9609C73.0862 43.1432 72.2464 43.2343 71.3089 43.2343C70.5471 43.2343 69.7952 43.1887 69.053 43.0976C68.3173 43.0064 67.6793 42.8958 67.1389 42.7656V40.0214H67.5686C67.9983 40.1907 68.5224 40.3437 69.1409 40.4804C69.7594 40.6236 70.3128 40.6952 70.801 40.6952C71.4521 40.6952 71.9794 40.6334 72.3831 40.5097C72.7932 40.3925 73.1057 40.2232 73.3206 40.0019C73.5224 39.7936 73.6689 39.5266 73.76 39.2011C73.8512 38.8756 73.8967 38.485 73.8967 38.0292V37.8242C73.4736 38.1692 73.0048 38.4426 72.4905 38.6445C71.9762 38.8463 71.4033 38.9472 70.7717 38.9472C69.2353 38.9472 68.0504 38.485 67.2171 37.5605C66.3837 36.636 65.9671 35.2298 65.9671 33.3417C65.9671 32.4368 66.094 31.6555 66.3479 30.998C66.6018 30.3404 66.9599 29.7675 67.4221 29.2792C67.8518 28.8235 68.3792 28.4687 69.0042 28.2148C69.6357 27.9609 70.2802 27.8339 70.9378 27.8339C71.5302 27.8339 72.0673 27.9055 72.5491 28.0488C73.0374 28.1855 73.4801 28.3775 73.8772 28.6249L74.0042 28.1367H77.4124V37.8437ZM73.8967 35.6464V30.6757C73.6949 30.5911 73.4475 30.526 73.1546 30.4804C72.8616 30.4283 72.5979 30.4023 72.3635 30.4023C71.4391 30.4023 70.7457 30.6692 70.2835 31.2031C69.8212 31.7304 69.5901 32.4693 69.5901 33.4199C69.5901 34.4745 69.7854 35.2102 70.176 35.6269C70.5732 36.0436 71.1591 36.2519 71.9339 36.2519C72.2854 36.2519 72.6305 36.1965 72.969 36.0859C73.3076 35.9752 73.6168 35.8287 73.8967 35.6464ZM90.2639 35.6269C90.2639 36.7597 89.7561 37.6744 88.7405 38.371C87.7249 39.0611 86.3349 39.4062 84.5706 39.4062C83.594 39.4062 82.7086 39.315 81.9143 39.1327C81.1201 38.9505 80.482 38.7486 80.0003 38.5273V35.6367H80.3225C80.4983 35.7603 80.7001 35.8971 80.928 36.0468C81.1624 36.19 81.4911 36.3463 81.9143 36.5156C82.2789 36.6653 82.6923 36.7955 83.1546 36.9062C83.6168 37.0103 84.1116 37.0624 84.6389 37.0624C85.329 37.0624 85.8401 36.9876 86.1721 36.8378C86.5042 36.6816 86.6702 36.4537 86.6702 36.1542C86.6702 35.8873 86.5725 35.6952 86.3772 35.5781C86.1819 35.4544 85.8108 35.3372 85.2639 35.2265C85.0035 35.1679 84.6487 35.1061 84.1995 35.0409C83.7568 34.9693 83.3531 34.8847 82.9885 34.787C81.9924 34.5266 81.2535 34.123 80.7717 33.5761C80.29 33.0227 80.0491 32.3359 80.0491 31.5156C80.0491 30.4609 80.5471 29.5852 81.5432 28.8886C82.5458 28.1855 83.913 27.8339 85.6448 27.8339C86.4651 27.8339 87.2496 27.9186 87.9983 28.0878C88.7535 28.2506 89.3427 28.4264 89.7659 28.6152V31.3886H89.4632C88.9423 31.0305 88.3466 30.7408 87.676 30.5195C87.012 30.2916 86.3382 30.1777 85.6546 30.1777C85.0882 30.1777 84.6096 30.2558 84.219 30.412C83.8349 30.5683 83.6428 30.7896 83.6428 31.0761C83.6428 31.3365 83.7307 31.5351 83.9065 31.6718C84.0823 31.8085 84.4957 31.9452 85.1467 32.082C85.5048 32.1536 85.8889 32.2252 86.2991 32.2968C86.7158 32.3619 87.1324 32.4465 87.5491 32.5507C88.4736 32.7916 89.1572 33.1725 89.5999 33.6933C90.0426 34.2076 90.2639 34.8521 90.2639 35.6269Z" fill="#6526AD"/>
<rect x="1" y="55.8276" width="108" height="3.17241" rx="1" fill="black" stroke="black" stroke-width="2" stroke-linejoin="round"/>
<defs>
<filter id="filter0_i" x="1.01369" y="45.5172" width="107.97" height="15.3793" filterUnits="userSpaceOnUse" color-interpolation-filters="sRGB">
<feFlood flood-opacity="0" result="BackgroundImageFix"/>
<feBlend mode="normal" in="SourceGraphic" in2="BackgroundImageFix" result="shape"/>
<feColorMatrix in="SourceAlpha" type="matrix" values="0 0 0 0 0 0 0 0 0 0 0 0 0 0 0 0 0 0 127 0" result="hardAlpha"/>
<feOffset dy="4"/>
<feGaussianBlur stdDeviation="5"/>
<feComposite in2="hardAlpha" operator="arithmetic" k2="-1" k3="1"/>
<feColorMatrix type="matrix" values="0 0 0 0 0 0 0 0 0 0 0 0 0 0 0 0 0 0 0.25 0"/>
<feBlend mode="normal" in2="shape" result="effect1_innerShadow"/>
</filter>
</defs>
</svg>
