<svg width="518" height="57" viewBox="0 0 518 57" fill="none" xmlns="http://www.w3.org/2000/svg">
<g filter="url(#filter0_d)">
<path d="M36.8457 38.1675L4.88086 24.8887V19.4336L36.8457 6.15479V13.0215L14.4751 22.1851L36.8457 31.3008V38.1675ZM67.3434 0.771484L48.3703 45.752H41.0251L59.9264 0.771484H67.3434ZM102.483 27.0898C102.483 28.8125 102.132 30.3517 101.43 31.7075C100.744 33.0633 99.7951 34.1878 98.5828 35.0811C97.1792 36.1338 95.632 36.8835 93.9412 37.3301C92.2664 37.7767 90.137 38 87.553 38H72.0013V2.37451H85.8304C88.7015 2.37451 90.799 2.47021 92.1229 2.66162C93.4627 2.85303 94.7866 3.27572 96.0946 3.92969C97.4503 4.61556 98.4552 5.54069 99.1092 6.70508C99.7791 7.85352 100.114 9.16943 100.114 10.6528C100.114 12.3755 99.6595 13.8988 98.7503 15.2227C97.8411 16.5306 96.5571 17.5514 94.8983 18.2852V18.4766C97.227 18.9391 99.0693 19.8962 100.425 21.3477C101.797 22.7992 102.483 24.7132 102.483 27.0898ZM90.7113 12.4473C90.7113 11.8571 90.5597 11.2669 90.2567 10.6768C89.9696 10.0866 89.4512 9.64795 88.7015 9.36084C88.0316 9.10563 87.1942 8.97005 86.1893 8.9541C85.2003 8.9222 83.8047 8.90625 82.0023 8.90625H81.1409V16.4429H82.5765C84.028 16.4429 85.2641 16.4189 86.285 16.3711C87.3058 16.3232 88.1113 16.1637 88.7015 15.8926C89.5309 15.5257 90.0732 15.0552 90.3284 14.481C90.5836 13.8908 90.7113 13.2129 90.7113 12.4473ZM92.9603 26.9463C92.9603 25.8138 92.737 24.9445 92.2904 24.3384C91.8597 23.7163 91.118 23.2537 90.0653 22.9507C89.3475 22.7433 88.3585 22.6317 87.0985 22.6157C85.8384 22.5998 84.5224 22.5918 83.1507 22.5918H81.1409V31.4683H81.8109C84.3948 31.4683 86.2451 31.4603 87.3616 31.4443C88.4782 31.4284 89.507 31.221 90.4481 30.8223C91.4051 30.4235 92.0591 29.8971 92.41 29.2432C92.7768 28.5732 92.9603 27.8076 92.9603 26.9463ZM130.899 26.1567H111.184C111.312 28.2622 112.109 29.8732 113.577 30.9897C115.06 32.1063 117.237 32.6646 120.108 32.6646C121.927 32.6646 123.689 32.3376 125.396 31.6836C127.103 31.0296 128.451 30.3278 129.439 29.5781H130.396V36.4927C128.451 37.2743 126.616 37.8405 124.894 38.1914C123.171 38.5423 121.265 38.7178 119.175 38.7178C113.784 38.7178 109.653 37.5055 106.782 35.0811C103.911 32.6566 102.475 29.2033 102.475 24.7212C102.475 20.2869 103.831 16.7778 106.542 14.1938C109.27 11.5939 113.002 10.2939 117.74 10.2939C122.11 10.2939 125.396 11.4025 127.597 13.6196C129.798 15.8208 130.899 18.995 130.899 23.1421V26.1567ZM122.333 21.1084C122.286 19.306 121.839 17.9502 120.994 17.041C120.148 16.1318 118.832 15.6772 117.046 15.6772C115.387 15.6772 114.023 16.1079 112.955 16.9692C111.886 17.8306 111.288 19.2103 111.16 21.1084H122.333ZM159.554 38H150.893V24.6733C150.893 23.5887 150.837 22.512 150.726 21.4434C150.614 20.3587 150.423 19.5612 150.152 19.0508C149.832 18.4606 149.362 18.0299 148.74 17.7588C148.134 17.4876 147.28 17.3521 146.18 17.3521C145.398 17.3521 144.601 17.4797 143.787 17.7349C142.99 17.9901 142.12 18.3968 141.179 18.9551V38H132.566V11.1313H141.179V14.0981C142.711 12.9019 144.178 11.9847 145.582 11.3467C147.001 10.7087 148.572 10.3896 150.295 10.3896C153.198 10.3896 155.463 11.235 157.09 12.9258C158.733 14.6165 159.554 17.1447 159.554 20.5103V38ZM174.716 38.4785C174.716 41.5091 173.783 43.8698 171.916 45.5605C170.05 47.2673 167.65 48.1206 164.715 48.1206C163.151 48.1206 161.724 48.0488 160.432 47.9053C159.156 47.7777 158.223 47.6421 157.633 47.4985V41.3257H158.303C158.781 41.4852 159.379 41.6208 160.097 41.7324C160.815 41.8441 161.381 41.8999 161.796 41.8999C163.455 41.8999 164.587 41.4054 165.193 40.4165C165.799 39.4276 166.102 37.8006 166.102 35.5356V16.9692H161.006V11.1313H174.716V38.4785ZM174.716 7.30322H165.552V0.771484H174.716V7.30322ZM194.71 30.9897V25.3911C193.546 25.4868 192.285 25.6224 190.93 25.7979C189.574 25.9574 188.545 26.1488 187.843 26.3721C186.982 26.6432 186.32 27.042 185.857 27.5684C185.411 28.0788 185.187 28.7567 185.187 29.6021C185.187 30.1603 185.235 30.6149 185.331 30.9658C185.427 31.3167 185.666 31.6517 186.049 31.9707C186.416 32.2897 186.854 32.529 187.365 32.6885C187.875 32.832 188.673 32.9038 189.757 32.9038C190.619 32.9038 191.488 32.7284 192.365 32.3774C193.258 32.0265 194.04 31.564 194.71 30.9897ZM194.71 35.1528C194.247 35.5037 193.673 35.9264 192.987 36.4209C192.301 36.9154 191.655 37.3062 191.049 37.5933C190.204 37.9761 189.327 38.2552 188.417 38.4307C187.508 38.6221 186.511 38.7178 185.427 38.7178C182.875 38.7178 180.737 37.9282 179.015 36.3491C177.292 34.77 176.431 32.7523 176.431 30.2959C176.431 28.334 176.869 26.731 177.747 25.4868C178.624 24.2427 179.868 23.2617 181.479 22.5439C183.074 21.8262 185.052 21.3158 187.413 21.0127C189.773 20.7096 192.222 20.4863 194.758 20.3428V20.1992C194.758 18.7158 194.152 17.695 192.939 17.1367C191.727 16.5625 189.941 16.2754 187.58 16.2754C186.16 16.2754 184.645 16.5306 183.034 17.041C181.423 17.5355 180.267 17.9183 179.565 18.1895H178.775V11.7056C179.685 11.4663 181.16 11.1872 183.202 10.8682C185.259 10.5332 187.317 10.3657 189.374 10.3657C194.271 10.3657 197.804 11.1234 199.974 12.6387C202.159 14.138 203.251 16.4987 203.251 19.7207V38H194.71V35.1528ZM233.031 18.9551V38H224.37V24.5776C224.37 23.2697 224.338 22.1611 224.275 21.252C224.211 20.3268 224.035 19.5771 223.748 19.0029C223.461 18.4287 223.022 18.014 222.432 17.7588C221.858 17.4876 221.045 17.3521 219.992 17.3521C219.146 17.3521 218.325 17.5275 217.527 17.8784C216.73 18.2134 216.012 18.5723 215.374 18.9551V38H206.761V11.1313H215.374V14.0981C216.858 12.9338 218.277 12.0246 219.633 11.3706C220.989 10.7166 222.488 10.3896 224.131 10.3896C225.901 10.3896 227.465 10.7884 228.82 11.5859C230.176 12.3675 231.237 13.5239 232.003 15.0552C233.725 13.6037 235.4 12.4632 237.027 11.6338C238.654 10.8044 240.249 10.3896 241.812 10.3896C244.715 10.3896 246.916 11.259 248.416 12.9976C249.931 14.7362 250.689 17.2404 250.689 20.5103V38H242.027V24.5776C242.027 23.2537 241.996 22.1372 241.932 21.228C241.884 20.3188 241.716 19.5771 241.429 19.0029C241.158 18.4287 240.727 18.014 240.137 17.7588C239.547 17.4876 238.718 17.3521 237.649 17.3521C236.931 17.3521 236.229 17.4797 235.544 17.7349C234.858 17.9741 234.02 18.3809 233.031 18.9551ZM262.835 38H254.222V11.1313H262.835V38ZM263.074 7.30322H253.983V0.771484H263.074V7.30322ZM293.548 38H284.887V24.6733C284.887 23.5887 284.831 22.512 284.72 21.4434C284.608 20.3587 284.417 19.5612 284.145 19.0508C283.826 18.4606 283.356 18.0299 282.734 17.7588C282.128 17.4876 281.274 17.3521 280.174 17.3521C279.392 17.3521 278.595 17.4797 277.781 17.7349C276.984 17.9901 276.114 18.3968 275.173 18.9551V38H266.56V11.1313H275.173V14.0981C276.705 12.9019 278.172 11.9847 279.576 11.3467C280.995 10.7087 282.566 10.3896 284.289 10.3896C287.192 10.3896 289.457 11.235 291.084 12.9258C292.727 14.6165 293.548 17.1447 293.548 20.5103V38ZM326.08 26.8027C326.08 30.3118 324.588 33.167 321.606 35.3682C318.639 37.5534 314.603 38.646 309.499 38.646C306.548 38.646 303.972 38.3908 301.771 37.8804C299.586 37.354 297.536 36.6921 295.622 35.8945V27.353H296.627C298.525 28.8683 300.647 30.0327 302.991 30.8462C305.352 31.6597 307.617 32.0664 309.786 32.0664C310.344 32.0664 311.078 32.0186 311.987 31.9229C312.897 31.8271 313.638 31.6676 314.212 31.4443C314.914 31.1572 315.489 30.7983 315.935 30.3677C316.398 29.937 316.629 29.299 316.629 28.4536C316.629 27.672 316.294 27.0021 315.624 26.4438C314.97 25.8696 314.005 25.431 312.729 25.1279C311.389 24.8089 309.97 24.5138 308.47 24.2427C306.987 23.9556 305.591 23.5967 304.283 23.166C301.285 22.193 299.123 20.8771 297.799 19.2183C296.491 17.5435 295.837 15.4699 295.837 12.9976C295.837 9.67985 297.321 6.97624 300.288 4.88672C303.27 2.78125 307.099 1.72852 311.772 1.72852C314.117 1.72852 316.43 1.9598 318.711 2.42236C321.007 2.86898 322.993 3.43522 324.668 4.12109V12.3276H323.687C322.252 11.1792 320.489 10.2222 318.4 9.45654C316.326 8.67497 314.205 8.28418 312.035 8.28418C311.27 8.28418 310.504 8.34001 309.738 8.45166C308.989 8.54736 308.263 8.73877 307.561 9.02588C306.939 9.26514 306.405 9.632 305.958 10.1265C305.511 10.605 305.288 11.1553 305.288 11.7773C305.288 12.7184 305.647 13.4442 306.365 13.9546C307.083 14.4491 308.438 14.9036 310.432 15.3184C311.74 15.5895 312.992 15.8527 314.189 16.1079C315.401 16.3631 316.701 16.714 318.088 17.1606C320.816 18.0539 322.826 19.2741 324.118 20.8213C325.426 22.3525 326.08 24.3464 326.08 26.8027ZM359.496 35.9663C357.901 36.5884 355.788 37.2104 353.156 37.8325C350.524 38.4386 347.9 38.7417 345.284 38.7417C339.223 38.7417 334.478 37.0988 331.049 33.813C327.619 30.5112 325.905 25.9574 325.905 20.1514C325.905 14.6165 327.635 10.1584 331.096 6.77686C334.558 3.37939 339.383 1.68066 345.572 1.68066C347.916 1.68066 350.149 1.896 352.271 2.32666C354.392 2.74137 356.753 3.57878 359.353 4.83887V13.189H358.324C357.877 12.854 357.223 12.3835 356.362 11.7773C355.501 11.1553 354.671 10.6289 353.874 10.1982C352.949 9.68783 351.864 9.24919 350.62 8.88232C349.392 8.51546 348.084 8.33203 346.696 8.33203C345.069 8.33203 343.594 8.57129 342.27 9.0498C340.946 9.52832 339.758 10.262 338.705 11.251C337.7 12.208 336.902 13.4282 336.312 14.9116C335.738 16.3791 335.451 18.0778 335.451 20.0078C335.451 23.9476 336.496 26.9622 338.585 29.0518C340.675 31.1413 343.761 32.186 347.844 32.186C348.195 32.186 348.578 32.1781 348.993 32.1621C349.424 32.1462 349.814 32.1222 350.165 32.0903V25.104H343.059V18.3809H359.496V35.9663ZM382.338 19.3379H381.572C381.205 19.2103 380.615 19.1146 379.802 19.0508C378.988 18.987 378.31 18.9551 377.768 18.9551C376.54 18.9551 375.455 19.0348 374.514 19.1943C373.573 19.3538 372.56 19.625 371.476 20.0078V38H362.862V11.1313H371.476V15.0791C373.374 13.4521 375.025 12.3755 376.428 11.8491C377.832 11.3068 379.124 11.0356 380.304 11.0356C380.607 11.0356 380.95 11.0436 381.333 11.0596C381.716 11.0755 382.051 11.0994 382.338 11.1313V19.3379ZM391.422 38H382.809V11.1313H391.422V38ZM391.661 7.30322H382.569V0.771484H391.661V7.30322ZM421.274 34.9136C421.274 37.4338 420.915 39.5552 420.197 41.2778C419.479 43.0005 418.474 44.3483 417.182 45.3213C415.89 46.3102 414.327 47.02 412.493 47.4507C410.675 47.8973 408.617 48.1206 406.32 48.1206C404.454 48.1206 402.612 48.009 400.793 47.7856C398.991 47.5623 397.428 47.2912 396.104 46.9722V40.249H397.156C398.209 40.6637 399.493 41.0386 401.009 41.3735C402.524 41.7244 403.88 41.8999 405.076 41.8999C406.671 41.8999 407.963 41.7484 408.952 41.4453C409.957 41.1582 410.722 40.7435 411.249 40.2012C411.743 39.6908 412.102 39.0368 412.325 38.2393C412.549 37.4417 412.66 36.4847 412.66 35.3682V34.8657C411.624 35.7111 410.475 36.381 409.215 36.8755C407.955 37.37 406.551 37.6172 405.004 37.6172C401.24 37.6172 398.337 36.4847 396.295 34.2197C394.253 31.9548 393.233 28.5094 393.233 23.8838C393.233 21.6667 393.544 19.7526 394.166 18.1416C394.788 16.5306 395.665 15.127 396.798 13.9307C397.85 12.8141 399.142 11.9448 400.674 11.3228C402.221 10.7007 403.8 10.3896 405.411 10.3896C406.862 10.3896 408.178 10.5651 409.359 10.916C410.555 11.251 411.64 11.7215 412.613 12.3276L412.924 11.1313H421.274V34.9136ZM412.66 29.5303V17.3521C412.166 17.1447 411.56 16.9852 410.842 16.8735C410.124 16.7459 409.478 16.6821 408.904 16.6821C406.639 16.6821 404.94 17.3361 403.808 18.644C402.675 19.936 402.109 21.7464 402.109 24.0752C402.109 26.6592 402.588 28.4616 403.545 29.4824C404.518 30.5033 405.953 31.0137 407.851 31.0137C408.713 31.0137 409.558 30.8781 410.387 30.6069C411.217 30.3358 411.975 29.9769 412.66 29.5303ZM451.125 34.9136C451.125 37.4338 450.767 39.5552 450.049 41.2778C449.331 43.0005 448.326 44.3483 447.034 45.3213C445.742 46.3102 444.179 47.02 442.345 47.4507C440.526 47.8973 438.469 48.1206 436.172 48.1206C434.306 48.1206 432.463 48.009 430.645 47.7856C428.843 47.5623 427.279 47.2912 425.955 46.9722V40.249H427.008C428.061 40.6637 429.345 41.0386 430.86 41.3735C432.376 41.7244 433.731 41.8999 434.928 41.8999C436.523 41.8999 437.815 41.7484 438.804 41.4453C439.809 41.1582 440.574 40.7435 441.1 40.2012C441.595 39.6908 441.954 39.0368 442.177 38.2393C442.4 37.4417 442.512 36.4847 442.512 35.3682V34.8657C441.475 35.7111 440.327 36.381 439.067 36.8755C437.807 37.37 436.403 37.6172 434.856 37.6172C431.092 37.6172 428.189 36.4847 426.147 34.2197C424.105 31.9548 423.084 28.5094 423.084 23.8838C423.084 21.6667 423.395 19.7526 424.017 18.1416C424.64 16.5306 425.517 15.127 426.649 13.9307C427.702 12.8141 428.994 11.9448 430.525 11.3228C432.072 10.7007 433.652 10.3896 435.263 10.3896C436.714 10.3896 438.03 10.5651 439.21 10.916C440.407 11.251 441.491 11.7215 442.464 12.3276L442.775 11.1313H451.125V34.9136ZM442.512 29.5303V17.3521C442.018 17.1447 441.412 16.9852 440.694 16.8735C439.976 16.7459 439.33 16.6821 438.756 16.6821C436.491 16.6821 434.792 17.3361 433.66 18.644C432.527 19.936 431.961 21.7464 431.961 24.0752C431.961 26.6592 432.439 28.4616 433.396 29.4824C434.369 30.5033 435.805 31.0137 437.703 31.0137C438.564 31.0137 439.41 30.8781 440.239 30.6069C441.069 30.3358 441.826 29.9769 442.512 29.5303ZM478.202 29.4824C478.202 32.2578 476.958 34.4989 474.469 36.2056C471.981 37.8963 468.576 38.7417 464.253 38.7417C461.86 38.7417 459.691 38.5184 457.745 38.0718C455.799 37.6252 454.236 37.1307 453.056 36.5884V29.5063H453.845C454.276 29.8094 454.77 30.1444 455.329 30.5112C455.903 30.8621 456.708 31.245 457.745 31.6597C458.638 32.0265 459.651 32.3455 460.784 32.6167C461.916 32.8719 463.128 32.9995 464.42 32.9995C466.111 32.9995 467.363 32.8161 468.177 32.4492C468.99 32.0664 469.397 31.5081 469.397 30.7744C469.397 30.1204 469.158 29.6499 468.679 29.3628C468.201 29.0597 467.292 28.7726 465.952 28.5015C465.314 28.3579 464.444 28.2064 463.344 28.0469C462.259 27.8714 461.27 27.6641 460.377 27.4248C457.937 26.7868 456.126 25.7979 454.946 24.458C453.766 23.1022 453.175 21.4194 453.175 19.4097C453.175 16.8257 454.396 14.6803 456.836 12.9736C459.292 11.251 462.642 10.3896 466.885 10.3896C468.895 10.3896 470.817 10.597 472.651 11.0117C474.501 11.4105 475.945 11.8411 476.982 12.3037V19.0986H476.24C474.964 18.2214 473.504 17.5116 471.861 16.9692C470.234 16.411 468.584 16.1318 466.909 16.1318C465.521 16.1318 464.349 16.3232 463.392 16.7061C462.451 17.0889 461.98 17.6312 461.98 18.333C461.98 18.971 462.195 19.4575 462.626 19.7925C463.057 20.1274 464.07 20.4624 465.665 20.7974C466.542 20.9728 467.483 21.1483 468.488 21.3237C469.509 21.4832 470.53 21.6906 471.55 21.9458C473.815 22.536 475.49 23.4691 476.575 24.7451C477.659 26.0052 478.202 27.5843 478.202 29.4824ZM513.078 24.8887L481.113 38.1675V31.3008L503.484 22.1611L481.113 13.0215V6.15479L513.078 19.4336V24.8887Z" fill="#DDC5F9"/>
</g>
<defs>
<filter id="filter0_d" x="0.880859" y="0.771484" width="516.197" height="55.3491" filterUnits="userSpaceOnUse" color-interpolation-filters="sRGB">
<feFlood flood-opacity="0" result="BackgroundImageFix"/>
<feColorMatrix in="SourceAlpha" type="matrix" values="0 0 0 0 0 0 0 0 0 0 0 0 0 0 0 0 0 0 127 0"/>
<feOffset dy="4"/>
<feGaussianBlur stdDeviation="2"/>
<feColorMatrix type="matrix" values="0 0 0 0 0 0 0 0 0 0 0 0 0 0 0 0 0 0 0.25 0"/>
<feBlend mode="normal" in2="BackgroundImageFix" result="effect1_dropShadow"/>
<feBlend mode="normal" in="SourceGraphic" in2="effect1_dropShadow" result="shape"/>
</filter>
</defs>
</svg>
