<svg width="323" height="48" viewBox="0 0 323 48" fill="none" xmlns="http://www.w3.org/2000/svg">
<g filter="url(#filter0_d)">
<path d="M31.0781 31.1367L4.98438 20.2969V15.8438L31.0781 5.00391V10.6094L12.8164 18.0898L31.0781 25.5312V31.1367ZM61.5742 0.609375L46.0859 37.3281H40.0898L55.5195 0.609375H61.5742ZM95.8594 22.0938C95.8594 23.5 95.5729 24.7565 95 25.8633C94.4401 26.9701 93.6654 27.888 92.6758 28.6172C91.5299 29.4766 90.2669 30.0885 88.8867 30.4531C87.5195 30.8177 85.7812 31 83.6719 31H70.9766V1.91797H82.2656C84.6094 1.91797 86.3216 1.99609 87.4023 2.15234C88.4961 2.30859 89.5768 2.65365 90.6445 3.1875C91.7513 3.7474 92.5716 4.5026 93.1055 5.45312C93.6523 6.39062 93.9258 7.46484 93.9258 8.67578C93.9258 10.082 93.5547 11.3255 92.8125 12.4062C92.0703 13.474 91.0221 14.3073 89.668 14.9062V15.0625C91.569 15.4401 93.0729 16.2214 94.1797 17.4062C95.2995 18.5911 95.8594 20.1536 95.8594 22.0938ZM86.25 10.1406C86.25 9.65885 86.1263 9.17708 85.8789 8.69531C85.6445 8.21354 85.2214 7.85547 84.6094 7.62109C84.0625 7.41276 83.3789 7.30208 82.5586 7.28906C81.7513 7.26302 80.612 7.25 79.1406 7.25H78.4375V13.4023H79.6094C80.7943 13.4023 81.8034 13.3828 82.6367 13.3438C83.4701 13.3047 84.1276 13.1745 84.6094 12.9531C85.2865 12.6536 85.7292 12.2695 85.9375 11.8008C86.1458 11.319 86.25 10.7656 86.25 10.1406ZM88.0859 21.9766C88.0859 21.0521 87.9036 20.3424 87.5391 19.8477C87.1875 19.3398 86.582 18.9622 85.7227 18.7148C85.1367 18.5456 84.3294 18.4544 83.3008 18.4414C82.2721 18.4284 81.1979 18.4219 80.0781 18.4219H78.4375V25.668H78.9844C81.0938 25.668 82.6042 25.6615 83.5156 25.6484C84.4271 25.6354 85.2669 25.4661 86.0352 25.1406C86.8164 24.8151 87.3503 24.3854 87.6367 23.8516C87.9362 23.3047 88.0859 22.6797 88.0859 21.9766ZM126.727 21.8594C126.727 24.724 125.509 27.0547 123.074 28.8516C120.652 30.6354 117.358 31.5273 113.191 31.5273C110.783 31.5273 108.68 31.319 106.883 30.9023C105.099 30.4727 103.426 29.9323 101.863 29.2812V22.3086H102.684C104.233 23.5456 105.965 24.4961 107.879 25.1602C109.806 25.8242 111.655 26.1562 113.426 26.1562C113.882 26.1562 114.48 26.1172 115.223 26.0391C115.965 25.9609 116.57 25.8307 117.039 25.6484C117.612 25.4141 118.081 25.1211 118.445 24.7695C118.823 24.418 119.012 23.8971 119.012 23.207C119.012 22.569 118.738 22.0221 118.191 21.5664C117.658 21.0977 116.87 20.7396 115.828 20.4922C114.734 20.2318 113.576 19.9909 112.352 19.7695C111.141 19.5352 110.001 19.2422 108.934 18.8906C106.486 18.0964 104.721 17.0221 103.641 15.668C102.573 14.3008 102.039 12.6081 102.039 10.5898C102.039 7.88151 103.25 5.67448 105.672 3.96875C108.107 2.25 111.232 1.39062 115.047 1.39062C116.961 1.39062 118.849 1.57943 120.711 1.95703C122.586 2.32161 124.207 2.78385 125.574 3.34375V10.043H124.773C123.602 9.10547 122.163 8.32422 120.457 7.69922C118.764 7.0612 117.033 6.74219 115.262 6.74219C114.637 6.74219 114.012 6.78776 113.387 6.87891C112.775 6.95703 112.182 7.11328 111.609 7.34766C111.102 7.54297 110.665 7.84245 110.301 8.24609C109.936 8.63672 109.754 9.08594 109.754 9.59375C109.754 10.362 110.047 10.9544 110.633 11.3711C111.219 11.7747 112.326 12.1458 113.953 12.4844C115.021 12.7057 116.043 12.9206 117.02 13.1289C118.009 13.3372 119.07 13.6237 120.203 13.9883C122.43 14.7174 124.07 15.7135 125.125 16.9766C126.193 18.2266 126.727 19.8542 126.727 21.8594ZM159.605 29.3398C158.303 29.8477 156.578 30.3555 154.43 30.8633C152.281 31.3581 150.139 31.6055 148.004 31.6055C143.056 31.6055 139.182 30.2643 136.383 27.582C133.583 24.8867 132.184 21.1693 132.184 16.4297C132.184 11.9115 133.596 8.27214 136.422 5.51172C139.247 2.73828 143.186 1.35156 148.238 1.35156C150.152 1.35156 151.975 1.52734 153.707 1.87891C155.439 2.21745 157.366 2.90104 159.488 3.92969V10.7461H158.648C158.284 10.4727 157.75 10.0885 157.047 9.59375C156.344 9.08594 155.667 8.65625 155.016 8.30469C154.26 7.88802 153.375 7.52995 152.359 7.23047C151.357 6.93099 150.289 6.78125 149.156 6.78125C147.828 6.78125 146.624 6.97656 145.543 7.36719C144.462 7.75781 143.492 8.35677 142.633 9.16406C141.812 9.94531 141.161 10.9414 140.68 12.1523C140.211 13.3503 139.977 14.737 139.977 16.3125C139.977 19.5286 140.829 21.9896 142.535 23.6953C144.241 25.401 146.76 26.2539 150.094 26.2539C150.38 26.2539 150.693 26.2474 151.031 26.2344C151.383 26.2214 151.702 26.2018 151.988 26.1758V20.4727H146.188V14.9844H159.605V29.3398ZM183.852 15.7656H183.227C182.927 15.6615 182.445 15.5833 181.781 15.5312C181.117 15.4792 180.564 15.4531 180.121 15.4531C179.118 15.4531 178.233 15.5182 177.465 15.6484C176.697 15.7786 175.87 16 174.984 16.3125V31H167.953V9.06641H174.984V12.2891C176.534 10.9609 177.882 10.082 179.027 9.65234C180.173 9.20964 181.228 8.98828 182.191 8.98828C182.439 8.98828 182.719 8.99479 183.031 9.00781C183.344 9.02083 183.617 9.04036 183.852 9.06641V15.7656ZM196.867 31H189.836V9.06641H196.867V31ZM197.062 5.94141H189.641V0.609375H197.062V5.94141ZM226.836 28.4805C226.836 30.5378 226.543 32.2695 225.957 33.6758C225.371 35.082 224.551 36.1823 223.496 36.9766C222.441 37.7839 221.165 38.3633 219.668 38.7148C218.184 39.0794 216.504 39.2617 214.629 39.2617C213.105 39.2617 211.602 39.1706 210.117 38.9883C208.646 38.806 207.37 38.5846 206.289 38.3242V32.8359H207.148C208.008 33.1745 209.056 33.4805 210.293 33.7539C211.53 34.0404 212.637 34.1836 213.613 34.1836C214.915 34.1836 215.97 34.0599 216.777 33.8125C217.598 33.5781 218.223 33.2396 218.652 32.7969C219.056 32.3802 219.349 31.8464 219.531 31.1953C219.714 30.5443 219.805 29.763 219.805 28.8516V28.4414C218.958 29.1315 218.021 29.6784 216.992 30.082C215.964 30.4857 214.818 30.6875 213.555 30.6875C210.482 30.6875 208.112 29.763 206.445 27.9141C204.779 26.0651 203.945 23.2526 203.945 19.4766C203.945 17.6667 204.199 16.1042 204.707 14.7891C205.215 13.474 205.931 12.3281 206.855 11.3516C207.715 10.4401 208.77 9.73047 210.02 9.22266C211.283 8.71484 212.572 8.46094 213.887 8.46094C215.072 8.46094 216.146 8.60417 217.109 8.89062C218.086 9.16406 218.971 9.54818 219.766 10.043L220.02 9.06641H226.836V28.4805ZM219.805 24.0859V14.1445C219.401 13.9753 218.906 13.8451 218.32 13.7539C217.734 13.6497 217.207 13.5977 216.738 13.5977C214.889 13.5977 213.503 14.1315 212.578 15.1992C211.654 16.2539 211.191 17.7318 211.191 19.6328C211.191 21.7422 211.582 23.2135 212.363 24.0469C213.158 24.8802 214.329 25.2969 215.879 25.2969C216.582 25.2969 217.272 25.1862 217.949 24.9648C218.626 24.7435 219.245 24.4505 219.805 24.0859ZM256.805 28.4805C256.805 30.5378 256.512 32.2695 255.926 33.6758C255.34 35.082 254.52 36.1823 253.465 36.9766C252.41 37.7839 251.134 38.3633 249.637 38.7148C248.152 39.0794 246.473 39.2617 244.598 39.2617C243.074 39.2617 241.57 39.1706 240.086 38.9883C238.615 38.806 237.339 38.5846 236.258 38.3242V32.8359H237.117C237.977 33.1745 239.025 33.4805 240.262 33.7539C241.499 34.0404 242.605 34.1836 243.582 34.1836C244.884 34.1836 245.939 34.0599 246.746 33.8125C247.566 33.5781 248.191 33.2396 248.621 32.7969C249.025 32.3802 249.318 31.8464 249.5 31.1953C249.682 30.5443 249.773 29.763 249.773 28.8516V28.4414C248.927 29.1315 247.99 29.6784 246.961 30.082C245.932 30.4857 244.786 30.6875 243.523 30.6875C240.451 30.6875 238.081 29.763 236.414 27.9141C234.747 26.0651 233.914 23.2526 233.914 19.4766C233.914 17.6667 234.168 16.1042 234.676 14.7891C235.184 13.474 235.9 12.3281 236.824 11.3516C237.684 10.4401 238.738 9.73047 239.988 9.22266C241.251 8.71484 242.54 8.46094 243.855 8.46094C245.04 8.46094 246.115 8.60417 247.078 8.89062C248.055 9.16406 248.94 9.54818 249.734 10.043L249.988 9.06641H256.805V28.4805ZM249.773 24.0859V14.1445C249.37 13.9753 248.875 13.8451 248.289 13.7539C247.703 13.6497 247.176 13.5977 246.707 13.5977C244.858 13.5977 243.471 14.1315 242.547 15.1992C241.622 16.2539 241.16 17.7318 241.16 19.6328C241.16 21.7422 241.551 23.2135 242.332 24.0469C243.126 24.8802 244.298 25.2969 245.848 25.2969C246.551 25.2969 247.241 25.1862 247.918 24.9648C248.595 24.7435 249.214 24.4505 249.773 24.0859ZM284.508 24.0469C284.508 26.3125 283.492 28.1419 281.461 29.5352C279.43 30.9154 276.65 31.6055 273.121 31.6055C271.168 31.6055 269.397 31.4232 267.809 31.0586C266.22 30.694 264.944 30.2904 263.98 29.8477V24.0664H264.625C264.977 24.3138 265.38 24.5872 265.836 24.8867C266.305 25.1732 266.962 25.4857 267.809 25.8242C268.538 26.1237 269.365 26.3841 270.289 26.6055C271.214 26.8138 272.203 26.918 273.258 26.918C274.638 26.918 275.66 26.7682 276.324 26.4688C276.988 26.1562 277.32 25.7005 277.32 25.1016C277.32 24.5677 277.125 24.1836 276.734 23.9492C276.344 23.7018 275.602 23.4674 274.508 23.2461C273.987 23.1289 273.277 23.0052 272.379 22.875C271.493 22.7318 270.686 22.5625 269.957 22.3672C267.965 21.8464 266.487 21.0391 265.523 19.9453C264.56 18.8385 264.078 17.4648 264.078 15.8242C264.078 13.7148 265.074 11.9635 267.066 10.5703C269.072 9.16406 271.806 8.46094 275.27 8.46094C276.91 8.46094 278.479 8.63021 279.977 8.96875C281.487 9.29427 282.665 9.64583 283.512 10.0234V15.5703H282.906C281.865 14.8542 280.673 14.2747 279.332 13.832C278.004 13.3763 276.656 13.1484 275.289 13.1484C274.156 13.1484 273.199 13.3047 272.418 13.6172C271.65 13.9297 271.266 14.3724 271.266 14.9453C271.266 15.4661 271.441 15.8633 271.793 16.1367C272.145 16.4102 272.971 16.6836 274.273 16.957C274.99 17.1003 275.758 17.2435 276.578 17.3867C277.411 17.5169 278.245 17.6862 279.078 17.8945C280.927 18.3763 282.294 19.138 283.18 20.1797C284.065 21.2083 284.508 22.4974 284.508 24.0469ZM318.578 20.2969L292.484 31.1367V25.5312L310.746 18.0703L292.484 10.6094V5.00391L318.578 15.8438V20.2969Z" fill="#BD93EE"/>
</g>
<defs>
<filter id="filter0_d" x="0.984375" y="0.609375" width="321.594" height="46.6523" filterUnits="userSpaceOnUse" color-interpolation-filters="sRGB">
<feFlood flood-opacity="0" result="BackgroundImageFix"/>
<feColorMatrix in="SourceAlpha" type="matrix" values="0 0 0 0 0 0 0 0 0 0 0 0 0 0 0 0 0 0 127 0"/>
<feOffset dy="4"/>
<feGaussianBlur stdDeviation="2"/>
<feColorMatrix type="matrix" values="0 0 0 0 0 0 0 0 0 0 0 0 0 0 0 0 0 0 0.25 0"/>
<feBlend mode="normal" in2="BackgroundImageFix" result="effect1_dropShadow"/>
<feBlend mode="normal" in="SourceGraphic" in2="effect1_dropShadow" result="shape"/>
</filter>
</defs>
</svg>
